<svg xmlns="http://www.w3.org/2000/svg" viewBox="0 0 40 40">
  <path d="M8.8 1.3h22.5c4.1 0 7.5 3.4 7.5 7.5v22.5c0 4.1-3.4 7.5-7.5 7.5H8.8c-4.1 0-7.5-3.4-7.5-7.5V8.8c0-4.1 3.4-7.5 7.5-7.5z" fill="#262002"/>
  <path d="M32 40H8c-4.4 0-8-3.6-8-8V8c0-4.4 3.6-8 8-8h24c4.4 0 8 3.6 8 8v24c0 4.4-3.6 8-8 8zM8 2C4.7 2 2 4.7 2 8v24c0 3.3 2.7 6 6 6h24c3.3 0 6-2.7 6-6V8c0-3.3-2.7-6-6-6H8z" fill="#ffd70d"/>
  <path d="M8.7 26.4c-.1-.1-.2-.2-.2-.4v-2.6c0-.1.1-.2.2-.1 1.2.8 2.6 1.2 4 1.2 2 0 2.8-1 2.8-2.2 0-1-.5-1.9-2.4-3l-1-.5c-2.8-1.6-3.6-3.2-3.6-5.2 0-2.8 1.9-5 5.6-5 1.6 0 2.9.3 3.6.6.1.1.2.1.2.3V12c0 .1-.1.2-.2.1-.8-.5-2.2-.8-3.5-.8-2.1 0-2.8 1.2-2.8 2.1 0 1 .5 1.8 2.4 2.8l.9.5c3.1 1.7 3.9 3.4 3.9 5.4 0 3-2.2 5.1-5.8 5.1-1.7.1-3.1-.2-4.1-.8zm22.8-6.5c0 4.9-3.4 7.3-6.9 7.3-.2 0-.5 0-.7-.1v3.7c0 .1-.1.2-.2.2l-2.5.2c-.2 0-.2 0-.2-.2V15.9c0-.3 0-1.1-.1-1.5 0 0-.1-.1 0-.1 1.1-.4 2.7-.9 4.7-.9 3.8 0 5.9 2.8 5.9 6.5zm-7.6-3.7v8.4c.2.1.6.1.9.1 1.8 0 3.7-1.3 3.7-4.6 0-2.7-1.2-4.1-3.2-4.1-.6 0-1 .1-1.4.2z" fill="#fff7cc"/>
</svg>
